# xmcd CD database file
#
# Track frame offsets:
#	150
#	34737
#	49072
#	69730
#	81490
#	104242
#	115125
#
# Disc length: 2030 seconds
#
# Revision: 1
# Processed by: cddbd v1.5.2PL0 Copyright (c) Steve Scherf et al.
# Submitted via: CDex 1.70beta2
#
DISCID=6407ec07
DTITLE=Tamba 4 - We And The Sea - WAV
DYEAR=1967
DGENRE=Bossa Nova
TTITLE0=O Morro
TTITLE1=Moca Flor
TTITLE2=Iemanja
TTITLE3=Wa and the Sea
TTITLE4=Chant of Ossanha
TTITLE5=The Dolphin
TTITLE6=Consolation
EXTD=YEAR: 1967
EXTT0=
EXTT1=
EXTT2=
EXTT3=
EXTT4=
EXTT5=
EXTT6=
PLAYORDER=
